<svg id="Layer_1" data-name="Layer 1" xmlns="http://www.w3.org/2000/svg" viewBox="0 0 951.48 234.22">
  <defs>
    <style>
      .cls-1{fill:#fff}
    </style>
  </defs>
  <path class="cls-1" d="M73.89 160.29c-5.7-6-11.55-9-17.4-9a17.86 17.86 0 0 0-4.71.64c-9.82 2.68-17.69 13.72-23.55 25.8-1.23 2.56-2.46 5.27-3.53 7.87a198.06 198.06 0 0 0-9 28.26 3.71 3.71 0 0 0 3.63 4.59 4.77 4.77 0 0 0 .76-.07 183.56 183.56 0 0 0 29-8.75c2.68-1.09 5.37-2.27 8-3.56 11.11-5.43 21.13-12.74 24.15-22.11 2.5-7.73.02-15.7-7.35-23.67Zm.25 21.39c-2.56 8-13.37 14.56-24.12 19.31-2.68 1.18-5.34 2.24-7.89 3.2-6.82 2.52-12.69 4.18-15.13 4.81l-2.55.69.73-2.54c.7-2.44 2.44-8.14 5-14.81 1-2.5 2-5.14 3.21-7.81 5.11-11.47 12.2-23.24 20.4-25.47a9.8 9.8 0 0 1 2.64-.37c3.77 0 7.81 2.24 12 6.69 8.12 8.79 6.31 14.44 5.71 16.3ZM168.07 50.19a16 16 0 1 0 16 16 16 16 0 0 0-16-16Zm0 24.79a8.82 8.82 0 1 1 8.82-8.82 8.83 8.83 0 0 1-8.82 8.84Z"/>
  <path class="cls-1" d="M176 122.53v-.52l.36-.37c16.66-17.63 27.88-33.38 35.33-47q2.29-4.2 4.12-8.12c14.9-31.81 8.78-50.66 7.65-53.58a3.56 3.56 0 0 0-3.12-2.3c-1.94-.12-3.92-.18-5.86-.18-14.24 0-29 3.12-43.87 9.18q-4.2 1.71-8.44 3.74c-16.64 8-33.4 19.59-49.88 34.64-1.39 1.28-2.76 2.56-4.09 3.83l-.36.33h-.47C57.74 67.92 38.13 91 37.32 92a3.59 3.59 0 0 0-.6 3.53 3.52 3.52 0 0 0 2.76 2.27l32.17 5.36-1.34 1.84c-1.6 2.21-2.5 3.56-2.64 3.78a3.57 3.57 0 0 0 .45 4.51l18.1 18.1a4 4 0 0 0 5.26.37l3-2.23-19.21-19.15.71-1c8.63-11.89 46-60.61 94.22-81.85 2.7-1.2 5.45-2.31 8.22-3.32a105.25 105.25 0 0 1 35.94-6.69h3.04l.22 1.16c1.09 6.19 1.81 19.79-6.25 39.57-1.05 2.58-2.24 5.27-3.61 8.06-8.91 18.15-25 40.67-53.28 66.76 0 0-13.13-13.64-19.14-19.92a4.34 4.34 0 0 0-6.09-.2c-4.25 3.91-10.59 9.78-10.59 9.78a4 4 0 0 0-.34.38s-2.73 3-3 4.39a4.63 4.63 0 0 0 1.21 3.87c1.5 1.65 13.34 14 18 18.74l.11.12c-2.92 2.4-10.92 8.69-10.92 8.69-3.12-3.11-21.75-22.6-21.77-22.73-.13.13-2.73 3-3 4.39a4.65 4.65 0 0 0 1.22 3.88c1.49 1.65 13.33 14 18 18.74l2.85 2.85a3.46 3.46 0 0 0 2.52 1 3.59 3.59 0 0 0 2.15-.72l3-2.3 2.54-2 5.31 32.58a3.55 3.55 0 0 0 2.57 2.87 3.28 3.28 0 0 0 .94.13 4.08 4.08 0 0 0 2.8-1.34C172.53 166.47 176 123 176 122.53ZM47.64 91.92l2.69-2c8.06-6 22.35-14.09 44.67-18.56l4.4-.89-3.09 3.26C89.55 80.9 83.07 88.4 77.06 96.06l-.52.67Zm90 65.18 4-3.34a4.13 4.13 0 0 0 .35-6c-5.86-6.05-18-18.63-18.84-19.49l2.59-2.45c1.69-1.58 3.81-3.55 6.3-5.8 1.48 1.62 22 23 22.09 23l11.62-10.61-.41 3.86c-1.87 17.28-14 36.59-21.08 46.57l-2 2.84Z"/>
  <path class="cls-1" d="m107.22 178-50.64-50.66a2.41 2.41 0 0 1-.25-3.11l1.94-2.7a2.4 2.4 0 0 1 3.65-.29l51.32 51.32a2.41 2.41 0 0 1-.23 3.61l-2.62 2a2.4 2.4 0 0 1-3.17-.17Z"/>
  <path class="cls-1" d="M218.75 77A109.23 109.23 0 0 1 63.67 212.38c-1.14.6-2.29 1.18-3.44 1.75q-2.5 1.2-5 2.33a117 117 0 0 0 168-148.82 80.34 80.34 0 0 1-4.48 9.36ZM168.09 11.7a117.06 117.06 0 0 0-149.92 168c.72-1.58 1.45-3.16 2.21-4.73.61-1.24 1.23-2.47 1.86-3.7A109.25 109.25 0 0 1 157.56 15.61c3.27-1.31 6.81-2.61 10.53-3.91ZM350.32 165.42v10.37H297.5V80.26h10.92v85.16ZM426.43 139.76c0 21.56-15.15 36.44-36.44 36.44s-36.44-14.88-36.44-36.44 15.15-36.17 36.45-36.17 36.43 14.74 36.43 36.17Zm-62.23.14c0 15.83 10.78 26.75 25.79 26.75s25.8-10.92 25.8-26.75S405 113.28 390 113.28s-25.8 10.92-25.8 26.62ZM506.74 131.43v44.36h-10.65V134.3c0-12.69-7.64-20.2-20.33-20.2-14.19.14-22.93 9.42-24.16 23.07v38.62H441v-71.92h10.6v15.83c5-10.92 14.74-16.11 27.84-16.24 17.2 0 27.3 10.64 27.3 27.97ZM589.19 144H530.5c1.91 14.06 12.15 22.93 26.07 22.93 8.87 0 16.65-3.14 22.25-9l5.86 6.28c-6.82 7.64-16.92 12-28.93 12-21.15 0-35.76-14.88-35.76-36.3s14.74-36.31 35.63-36.31c23.2-.14 34.66 15.96 33.57 40.4Zm-9.55-8.73c-.69-13.79-10-22.52-24-22.52-13.65 0-23.48 8.87-25.12 22.52ZM676.59 89.81l-9.14 19c-10.1-5.87-22.79-10-30.57-10-6.28 0-10.51 2.32-10.51 7 0 16.51 50.49 7.09 50.49 41.62 0 19.11-16.92 29.21-38.21 29.21-16 0-32.34-6-43.67-15.29l9.42-18.69c9.82 8.56 24.6 14.34 34.52 14.34 7.65 0 12.42-2.87 12.42-8.33 0-16.92-50.49-6.82-50.49-40.67 0-17.6 15.15-28.8 38.07-28.8 13.79-.04 27.85 4.19 37.67 10.61ZM752.8 117.92l-16.92 10.24a17.62 17.62 0 0 0-14.88-7.64c-9.14 0-15.42 7.5-15.42 18.56 0 11.33 6.28 18.69 15.42 18.69 6.69 0 11.88-2.72 15-8.32l17.19 10.1c-6 10.78-17.88 17.06-33.43 17.06-22.66 0-37.94-15-37.94-37.4 0-22.65 15.42-37.8 38.21-37.8 14.62 0 26.36 6 32.77 16.51ZM828.11 127.75v48h-23.06v-8.46c-4.78 6.28-12.56 9.55-22.52 9.55-15.69 0-25.25-9.55-25.25-23.06 0-13.92 10-22.11 28.25-22.25h19.38v-1.09c0-7.23-4.77-11.6-14.33-11.6-6.14 0-14.19 2.18-22 6.14l-6.69-15.56c11.47-5.32 21.84-8.32 34.12-8.32 20.23.04 31.99 10 32.1 26.65Zm-23.2 23.06v-6.55H790c-7.1 0-10.65 2.46-10.65 7.92s3.82 8.73 10.37 8.73c7.41 0 13.69-4.09 15.19-10.1ZM842.13 175.79V74.52h23.61v101.27ZM951.34 145.36h-51.72c2.32 8.73 8.6 13.64 17.33 13.64a24.87 24.87 0 0 0 17.61-7.5L947 163.64c-7.51 8.19-18.56 13-32.08 13-24 0-39-15-39-37.4 0-22.79 15.56-37.8 38.35-37.8 25.88-.03 38.73 17.03 37.07 43.92Zm-22.65-12.7c0-9-5.73-14.87-14.19-14.87-8.19 0-13.79 6-15.29 14.87Z"/>
</svg>
